<?xml version="1.0" encoding="UTF-8" standalone="no"?>
<!DOCTYPE svg PUBLIC "-//W3C//DTD SVG 1.1//EN" "http://www.w3.org/Graphics/SVG/1.1/DTD/svg11.dtd">
<svg width="100%" height="100%" viewBox="0 0 1042 555" version="1.1" xmlns="http://www.w3.org/2000/svg" xmlns:xlink="http://www.w3.org/1999/xlink" xml:space="preserve" xmlns:serif="http://www.serif.com/" style="fill-rule:evenodd;clip-rule:evenodd;stroke-linejoin:round;stroke-miterlimit:2;">
    <g transform="matrix(0.99708,0.406386,-0.406386,0.99708,714.997,-90.9912)">
        <g transform="matrix(0.866025,0.5,-0.5,0.866025,123.408,-44.7351)">
            <path d="M207.438,119.084C207.438,109.012 199.261,100.835 189.189,100.835L152.69,100.835C142.618,100.835 134.44,109.012 134.44,119.084L134.44,294.943C134.44,305.015 142.618,313.193 152.69,313.193L189.189,313.193C199.261,313.193 207.438,305.015 207.438,294.943L207.438,119.084Z" style="fill:rgb(106,189,69);"/>
        </g>
        <g transform="matrix(0.866025,0.5,-0.5,0.866025,107.681,121.078)">
            <path d="M207.438,119.084C207.438,109.012 199.261,100.835 189.189,100.835L152.69,100.835C142.618,100.835 134.44,109.012 134.44,119.084L134.44,294.943C134.44,305.015 142.618,313.193 152.69,313.193L189.189,313.193C199.261,313.193 207.438,305.015 207.438,294.943L207.438,119.084Z" style="fill:rgb(14,147,70);"/>
        </g>
        <g transform="matrix(-9.02867e-17,1,-0.669751,-2.40312e-18,296.802,142.253)">
            <path d="M207.438,128.083C207.438,113.044 199.261,100.835 189.189,100.835L152.69,100.835C142.618,100.835 134.44,113.044 134.44,128.083L134.44,285.945C134.44,300.983 142.618,313.193 152.69,313.193L189.189,313.193C199.261,313.193 207.438,300.983 207.438,285.945L207.438,128.083Z" style="fill:rgb(22,178,75);"/>
        </g>
    </g>
    <g transform="matrix(1.12012,0,0,1.12012,-312.96,-132.988)">
        <path d="M1010.48,133.657C975.662,125.618 939.467,125.618 904.645,133.657L900.659,183.486C895.649,185.076 890.707,186.874 885.848,188.877L850.764,153.268C818.922,169.492 791.195,192.758 769.687,221.299L798.664,262.033C795.847,266.471 793.218,271.025 790.783,275.684L741.018,270.956C727.054,303.853 720.769,339.498 722.639,375.187L771.02,387.765C771.715,392.975 772.628,398.154 773.757,403.288L732.596,431.655C743.045,465.831 761.142,497.177 785.515,523.313L830.662,501.851C834.544,505.395 838.572,508.775 842.736,511.982L829.439,560.17C859.411,579.634 893.424,592.014 928.895,596.369L949.684,550.908C954.935,551.128 960.194,551.128 965.445,550.908L986.234,596.369C1021.71,592.014 1055.72,579.634 1085.69,560.17L1072.39,511.982C1076.56,508.775 1080.59,505.395 1084.47,501.851L1129.61,523.313C1153.99,497.177 1172.08,465.831 1182.53,431.655L1141.37,403.288C1142.5,398.154 1143.41,392.975 1144.11,387.765L1192.49,375.187C1194.36,339.498 1188.08,303.853 1174.11,270.956L1124.35,275.684C1121.91,271.025 1119.28,266.471 1116.46,262.033L1145.44,221.299C1123.93,192.758 1096.21,169.492 1064.37,153.268L1029.28,188.877C1024.42,186.874 1019.48,185.076 1014.47,183.486L1010.48,133.657ZM957.564,231.136C1030.27,231.136 1089.3,290.166 1089.3,362.875C1089.3,435.584 1030.27,494.614 957.564,494.614C884.856,494.614 825.826,435.584 825.826,362.875C825.826,290.166 884.856,231.136 957.564,231.136Z" style="fill:rgb(138,198,63);"/>
    </g>
    <g transform="matrix(1.27862,0,0,1.27862,96.7028,-77.225)">
        <rect x="120.322" y="159.839" width="195.369" height="8.494" style="fill:rgb(138,198,63);"/>
    </g>
    <g transform="matrix(1.27862,0,0,1.27862,71.1304,30.6373)">
        <rect x="120.322" y="159.839" width="195.369" height="8.494" style="fill:rgb(138,198,63);"/>
    </g>
    <g transform="matrix(2.26634,-2.87526e-16,7.96758e-17,-1.27862,-215.109,393.453)">
        <rect x="120.322" y="159.839" width="195.369" height="8.494" style="fill:rgb(138,198,63);"/>
    </g>
</svg>
