<?xml version="1.0" encoding="UTF-8" standalone="no"?>
<!DOCTYPE svg PUBLIC "-//W3C//DTD SVG 1.1//EN" "http://www.w3.org/Graphics/SVG/1.1/DTD/svg11.dtd">
<svg width="100%" height="100%" viewBox="0 0 1088 688" version="1.1" xmlns="http://www.w3.org/2000/svg" xmlns:xlink="http://www.w3.org/1999/xlink" xml:space="preserve" xmlns:serif="http://www.serif.com/" style="fill-rule:evenodd;clip-rule:evenodd;stroke-linejoin:round;stroke-miterlimit:2;">
    <g transform="matrix(1,0,0,1,-6.3602,-8.27969)">
        <g transform="matrix(13.7756,0,0,13.7756,-2554.26,-4158.83)">
            <text x="187.8px" y="330.134px" style="font-family:'NexaLight', 'Nexa Light';font-size:12px;fill:rgb(103,98,97);">P<tspan x="195.396px 202.692px " y="330.134px 330.134px ">ag</tspan>e</text>
            <text x="216.336px" y="330.134px" style="font-family:'NexaLight', 'Nexa Light';font-size:12px;fill:rgb(7,88,28);">.<tspan x="218.244px 227.424px " y="330.134px 330.134px ">wo</tspan>rk(   )</text>
        </g>
        <g transform="matrix(0.604574,-0.182544,0.182544,0.604574,555.781,202.74)">
            <g transform="matrix(1,0,0,1,-51.0787,-30.7214)">
                <path d="M537.805,375.805C537.805,367.56 531.111,360.866 522.866,360.866L492.987,360.866C484.742,360.866 478.048,367.56 478.048,375.805L478.048,470.563C478.048,478.808 484.742,485.502 492.987,485.502L522.866,485.502C531.111,485.502 537.805,478.808 537.805,470.563L537.805,375.805Z" style="fill:rgb(126,196,92);"/>
            </g>
            <g transform="matrix(0.510343,0.859971,-1.58773,0.942226,946.739,-447.5)">
                <path d="M537.805,368.958C537.805,364.492 531.111,360.866 522.866,360.866L492.987,360.866C484.742,360.866 478.048,364.492 478.048,368.958L478.048,477.41C478.048,481.876 484.742,485.502 492.987,485.502L522.866,485.502C531.111,485.502 537.805,481.876 537.805,477.41L537.805,368.958Z" style="fill:rgb(109,190,68);"/>
            </g>
            <g transform="matrix(0.619202,0.785232,-0.785232,0.619202,421.531,-303.114)">
                <path d="M618.05,239.645C618.05,237.76 616.52,236.23 614.635,236.23L607.806,236.23C605.921,236.23 604.391,237.76 604.391,239.645L604.391,246.474C604.391,248.359 605.921,249.889 607.806,249.889L614.635,249.889C616.52,249.889 618.05,248.359 618.05,246.474L618.05,239.645Z" style="fill:rgb(8,6,5);"/>
            </g>
            <g transform="matrix(0.619202,0.785232,-0.785232,0.619202,439.531,-286.114)">
                <path d="M618.05,239.645C618.05,237.76 616.52,236.23 614.635,236.23L607.806,236.23C605.921,236.23 604.391,237.76 604.391,239.645L604.391,246.474C604.391,248.359 605.921,249.889 607.806,249.889L614.635,249.889C616.52,249.889 618.05,248.359 618.05,246.474L618.05,239.645Z" style="fill:rgb(8,6,5);"/>
            </g>
        </g>
    </g>
</svg>
