<?xml version="1.0" encoding="UTF-8" standalone="no"?>
<!DOCTYPE svg PUBLIC "-//W3C//DTD SVG 1.1//EN" "http://www.w3.org/Graphics/SVG/1.1/DTD/svg11.dtd">
<svg width="100%" height="100%" viewBox="0 0 200 200" version="1.1" xmlns="http://www.w3.org/2000/svg" xmlns:xlink="http://www.w3.org/1999/xlink" xml:space="preserve" xmlns:serif="http://www.serif.com/" style="fill-rule:evenodd;clip-rule:evenodd;stroke-linejoin:round;stroke-miterlimit:2;">
    <g transform="matrix(3.37421,0,0,3.26216,-224.053,-47.5135)">
        <g transform="matrix(0.820798,0,0,0.820798,3.8453,-42.5834)">
            <path d="M147.125,83.816C147.125,83.038 146.514,82.406 145.762,82.406L133.091,82.406C132.339,82.406 131.728,83.038 131.728,83.816L131.728,86.635C131.728,87.413 132.339,88.045 133.091,88.045L145.762,88.045C146.514,88.045 147.125,87.413 147.125,86.635L147.125,83.816Z" style="fill:rgb(205,137,185);"/>
        </g>
        <g transform="matrix(0.173408,0,0,0.915505,99.6265,-50.6795)">
            <path d="M147.125,83.16C147.125,82.744 145.4,82.406 143.276,82.406L135.577,82.406C133.453,82.406 131.728,82.744 131.728,83.16L131.728,87.29C131.728,87.707 133.453,88.045 135.577,88.045L143.276,88.045C145.4,88.045 147.125,87.707 147.125,87.29L147.125,83.16Z" style="fill:rgb(168,111,151);"/>
        </g>
        <g transform="matrix(1,0,0,0.675,0,-8.21944)">
            <path d="M116.17,44.145C116.17,39.938 113.94,36.522 111.195,36.522L71.946,36.522C69.2,36.522 66.97,39.938 66.97,44.145L66.97,59.393C66.97,63.601 69.2,67.017 71.946,67.017L111.195,67.017C113.94,67.017 116.17,63.601 116.17,59.393L116.17,44.145Z" style="fill:rgb(75,181,78);"/>
        </g>
        <g transform="matrix(1.38781,0,0,1.38781,-94.0663,-25.9725)">
            <path d="M149.308,33.5C149.308,33.036 148.944,32.659 148.495,32.659L146.869,32.659C146.42,32.659 146.055,33.036 146.055,33.5L146.055,35.274C146.055,35.738 146.42,36.115 146.869,36.115L148.495,36.115C148.944,36.115 149.308,35.738 149.308,35.274L149.308,33.5Z" style="fill:rgb(8,6,5);"/>
        </g>
        <g transform="matrix(1.38781,0,0,1.38781,-94.0663,-16.1984)">
            <path d="M149.308,33.5C149.308,33.036 148.944,32.659 148.495,32.659L146.869,32.659C146.42,32.659 146.055,33.036 146.055,33.5L146.055,35.274C146.055,35.738 146.42,36.115 146.869,36.115L148.495,36.115C148.944,36.115 149.308,35.738 149.308,35.274L149.308,33.5Z" style="fill:rgb(8,6,5);"/>
        </g>
        <path d="M80.382,31.293C80.382,29.374 78.876,27.816 77.021,27.816L70.299,27.816C68.443,27.816 66.937,29.374 66.937,31.293L66.937,47.977C66.937,49.895 68.443,51.453 70.299,51.453L77.021,51.453C78.876,51.453 80.382,49.895 80.382,47.977L80.382,31.293Z" style="fill:rgb(67,162,70);"/>
        <g transform="matrix(6.12323e-17,-1,2.09174,1.28082e-16,9.42832,119.8)">
            <path d="M80.382,29.369C80.382,28.512 78.876,27.816 77.021,27.816L70.299,27.816C68.443,27.816 66.937,28.512 66.937,29.369L66.937,49.9C66.937,50.757 68.443,51.453 70.299,51.453L77.021,51.453C78.876,51.453 80.382,50.757 80.382,49.9L80.382,29.369Z" style="fill:rgb(56,140,59);"/>
        </g>
        <g transform="matrix(-1,-1.22465e-16,1.58418e-16,-1.29358,184.643,105.76)">
            <path d="M80.382,30.504C80.382,29.02 78.876,27.816 77.021,27.816L70.299,27.816C68.443,27.816 66.937,29.02 66.937,30.504L66.937,48.766C66.937,50.249 68.443,51.453 70.299,51.453L77.021,51.453C78.876,51.453 80.382,50.249 80.382,48.766L80.382,30.504Z" style="fill:rgb(37,113,46);"/>
        </g>
        <g transform="matrix(1.19434e-15,-1,2.12844,2.54208e-15,8.29912,140.944)">
            <path d="M80.382,29.343C80.382,28.5 78.876,27.816 77.021,27.816L70.299,27.816C68.443,27.816 66.937,28.5 66.937,29.343L66.937,49.927C66.937,50.769 68.443,51.453 70.299,51.453L77.021,51.453C78.876,51.453 80.382,50.769 80.382,49.927L80.382,29.343Z" style="fill:rgb(22,93,34);"/>
        </g>
    </g>
</svg>
