<?xml version="1.0" encoding="UTF-8" standalone="no"?>
<!DOCTYPE svg PUBLIC "-//W3C//DTD SVG 1.1//EN" "http://www.w3.org/Graphics/SVG/1.1/DTD/svg11.dtd">
<svg width="100%" height="100%" viewBox="0 0 1129 663" version="1.1" xmlns="http://www.w3.org/2000/svg" xmlns:xlink="http://www.w3.org/1999/xlink" xml:space="preserve" xmlns:serif="http://www.serif.com/" style="fill-rule:evenodd;clip-rule:evenodd;stroke-linejoin:round;stroke-miterlimit:2;">
    <g transform="matrix(1.51145,0,0,1.51145,-147.295,-205.72)">
        <g transform="matrix(1.09313e-16,1.26493,-1.39212,1.14191e-16,917.236,-103.797)">
            <g transform="matrix(0.796549,0,-7.98827e-33,0.648086,61.4163,26.7604)">
                <path d="M388.216,140.973C388.216,127.668 378.544,116.866 366.631,116.866L323.459,116.866C311.546,116.866 301.873,127.668 301.873,140.973L301.873,292.428C301.873,305.733 311.546,316.535 323.459,316.535L366.631,316.535C378.544,316.535 388.216,305.733 388.216,292.428L388.216,140.973Z" style="fill:rgb(77,107,179);"/>
            </g>
            <g transform="matrix(5.04146e-17,0.823333,-1,6.12323e-17,621.106,-164.93)">
                <path d="M388.216,136.426C388.216,125.631 378.544,116.866 366.631,116.866L323.459,116.866C311.546,116.866 301.873,125.631 301.873,136.426L301.873,296.975C301.873,307.771 311.546,316.535 323.459,316.535L366.631,316.535C378.544,316.535 388.216,307.771 388.216,296.975L388.216,136.426Z" style="fill:rgb(101,127,191);"/>
            </g>
            <g transform="matrix(-1,-1.22465e-16,1.22465e-16,-1,810.025,523.965)">
                <path d="M507.233,289.366C507.233,280.883 499.653,273.996 490.317,273.996L330.918,273.996C321.581,273.996 314.001,280.883 314.001,289.366L314.001,320.108C314.001,328.591 321.581,335.479 330.918,335.479L490.317,335.479C499.653,335.479 507.233,328.591 507.233,320.108L507.233,289.366Z" style="fill:rgb(57,74,159);"/>
            </g>
            <g transform="matrix(3.78844e-17,0.6187,-1,6.12323e-17,770.916,30.2008)">
                <path d="M507.233,289.366C507.233,280.883 497.118,273.996 484.659,273.996L336.575,273.996C324.116,273.996 314.001,280.883 314.001,289.366L314.001,320.108C314.001,328.591 324.116,335.479 336.575,335.479L484.659,335.479C497.118,335.479 507.233,328.591 507.233,320.108L507.233,289.366Z" style="fill:rgb(65,92,170);"/>
            </g>
            <g transform="matrix(1,0,0,1,-20.4199,9.44467)">
                <path d="M507.233,289.366C507.233,280.883 499.653,273.996 490.317,273.996L330.918,273.996C321.581,273.996 314.001,280.883 314.001,289.366L314.001,320.108C314.001,328.591 321.581,335.479 330.918,335.479L490.317,335.479C499.653,335.479 507.233,328.591 507.233,320.108L507.233,289.366Z" style="fill:rgb(61,73,159);"/>
            </g>
            <g transform="matrix(1,0,-3.08149e-33,1,432,-156.183)">
                <path d="M55.86,264.356C55.86,262.047 53.797,260.172 51.255,260.172L42.045,260.172C39.504,260.172 37.44,262.047 37.44,264.356L37.44,276.71C37.44,279.019 39.504,280.894 42.045,280.894L51.255,280.894C53.797,280.894 55.86,279.019 55.86,276.71L55.86,264.356Z" style="fill:rgb(8,6,5);"/>
            </g>
            <g transform="matrix(1,0,-3.08149e-33,1,432,-126.183)">
                <path d="M55.86,264.356C55.86,262.047 53.797,260.172 51.255,260.172L42.045,260.172C39.504,260.172 37.44,262.047 37.44,264.356L37.44,276.71C37.44,279.019 39.504,280.894 42.045,280.894L51.255,280.894C53.797,280.894 55.86,279.019 55.86,276.71L55.86,264.356Z" style="fill:rgb(8,6,5);"/>
            </g>
        </g>
        <g transform="matrix(-4.97315e-18,-1.34156,1.47646,-1.03091e-16,70.3712,853.303)">
            <g transform="matrix(0.796549,1.47273e-32,0,0.648086,61.4163,-8.99299)">
                <path d="M388.216,140.973C388.216,127.668 378.544,116.866 366.631,116.866L323.459,116.866C311.546,116.866 301.873,127.668 301.873,140.973L301.873,292.428C301.873,305.733 311.546,316.535 323.459,316.535L366.631,316.535C378.544,316.535 388.216,305.733 388.216,292.428L388.216,140.973Z" style="fill:rgb(103,162,53);"/>
            </g>
            <g transform="matrix(5.04146e-17,0.823333,-1,6.12323e-17,621.106,-200.683)">
                <path d="M388.216,136.426C388.216,125.631 378.544,116.866 366.631,116.866L323.459,116.866C311.546,116.866 301.873,125.631 301.873,136.426L301.873,296.975C301.873,307.771 311.546,316.535 323.459,316.535L366.631,316.535C378.544,316.535 388.216,307.771 388.216,296.975L388.216,136.426Z" style="fill:rgb(127,194,66);"/>
            </g>
            <g transform="matrix(1,1.84889e-32,0,1,-11.2099,-121.262)">
                <path d="M507.233,289.366C507.233,280.883 499.653,273.996 490.317,273.996L330.918,273.996C321.581,273.996 314.001,280.883 314.001,289.366L314.001,320.108C314.001,328.591 321.581,335.479 330.918,335.479L490.317,335.479C499.653,335.479 507.233,328.591 507.233,320.108L507.233,289.366Z" style="fill:rgb(93,149,48);"/>
            </g>
            <g transform="matrix(4.38578e-17,0.811113,-1.39932,9.77979e-17,880.329,-67.3979)">
                <path d="M507.233,289.366C507.233,280.883 496.437,273.996 483.139,273.996L338.096,273.996C324.798,273.996 314.001,280.883 314.001,289.366L314.001,320.108C314.001,328.591 324.798,335.479 338.096,335.479L483.139,335.479C496.437,335.479 507.233,328.591 507.233,320.108L507.233,289.366Z" style="fill:rgb(76,126,39);"/>
            </g>
            <g transform="matrix(1,0,0,1,-20.4199,9.44467)">
                <path d="M507.233,289.366C507.233,280.883 499.653,273.996 490.317,273.996L330.918,273.996C321.581,273.996 314.001,280.883 314.001,289.366L314.001,320.108C314.001,328.591 321.581,335.479 330.918,335.479L490.317,335.479C499.653,335.479 507.233,328.591 507.233,320.108L507.233,289.366Z" style="fill:rgb(41,83,15);"/>
            </g>
            <g transform="matrix(1,1.84889e-32,0,1,432,-203.184)">
                <path d="M55.86,264.356C55.86,262.047 53.797,260.172 51.255,260.172L42.045,260.172C39.504,260.172 37.44,262.047 37.44,264.356L37.44,276.71C37.44,279.019 39.504,280.894 42.045,280.894L51.255,280.894C53.797,280.894 55.86,279.019 55.86,276.71L55.86,264.356Z" style="fill:rgb(8,6,5);"/>
            </g>
            <g transform="matrix(1,1.84889e-32,0,1,432,-173.184)">
                <path d="M55.86,264.356C55.86,262.047 53.797,260.172 51.255,260.172L42.045,260.172C39.504,260.172 37.44,262.047 37.44,264.356L37.44,276.71C37.44,279.019 39.504,280.894 42.045,280.894L51.255,280.894C53.797,280.894 55.86,279.019 55.86,276.71L55.86,264.356Z" style="fill:rgb(8,6,5);"/>
            </g>
        </g>
    </g>
</svg>
